<?xml version="1.0" encoding="UTF-8" standalone="no"?>
<svg
   viewBox="0 0 2601 2335.392"
   version="1.1"
   id="svg1"
   sodipodi:docname="cardio.svg"
   inkscape:version="1.4.3 (0d15f75042, 2025-12-25)"
   xmlns:inkscape="http://www.inkscape.org/namespaces/inkscape"
   xmlns:sodipodi="http://sodipodi.sourceforge.net/DTD/sodipodi-0.dtd"
   xmlns="http://www.w3.org/2000/svg"
   xmlns:svg="http://www.w3.org/2000/svg">
  <defs
     id="defs1" />
  <sodipodi:namedview
     id="namedview1"
     pagecolor="#ffffff"
     bordercolor="#000000"
     borderopacity="0.25"
     inkscape:showpageshadow="2"
     inkscape:pageopacity="0.0"
     inkscape:pagecheckerboard="0"
     inkscape:deskcolor="#d1d1d1"
     inkscape:zoom="0.33912935"
     inkscape:cx="1301.8631"
     inkscape:cy="1167.696"
     inkscape:window-width="1920"
     inkscape:window-height="1004"
     inkscape:window-x="0"
     inkscape:window-y="0"
     inkscape:window-maximized="1"
     inkscape:current-layer="svg1" />
  <path
     d="M1215 2250q-82 0-132-38t-50-92q0-42 29-77.5t73-51.5q21-50 21-176 0-137-22-250t-59-196q-37-83-82-128t-91-45q-35 0-73.5 21t-87 42q-48.5 21-112.5 21-84 0-165.5-43.5t-135-116.5Q275 1047 275 959q0-70 37.5-107T413 815q118 0 132 122 4 32 22.5 55.5T629 1016q49 0 99-32t85.5-92Q849 832 854 749l114 53q-90 0-164-44T686 640q-44-74-44-164t44-164q44-74 118-118t164-44q90 0 164 44t118 118q44 74 44 164 0 55-17 104.5t-48 90.5l-20-38q128-35 240.5-54.5T1635 559q113 0 205.5 43T1988 717.5q55 72.5 55 159.5 0 70-41.5 114t-98.5 44q-55 0-88-39t-33-92q0-79-114-79-67 0-106.5 35t-39.5 81q0 43 38 114t107 168q65 91 124 155t130 64q35 0 58.5-17.5t45-41q21.5-23.5 50-41t71.5-17.5q36 0 77.5 23t71.5 65q30 42 30 101 0 55-14.5 87.5T2253 1634q-25 0-52-12.5t-61-12.5q-26 0-48.5 19.5T2041 1673q-28 25-69 44.5t-105 19.5q-62 0-107.5-19t-80.5-43.5q-35-24.5-66-43.5t-66-19q-42 0-63 38t-21 106q0 250-59.5 372T1215 2250z"
     id="path1"
     style="fill:#ffffff;fill-opacity:1" />
</svg>
