<?xml version="1.0" encoding="UTF-8" standalone="no"?>
<svg
   viewBox="0 0 2601 2335.392"
   version="1.1"
   id="svg1"
   sodipodi:docname="leg.svg"
   inkscape:version="1.4.3 (0d15f75042, 2025-12-25)"
   xmlns:inkscape="http://www.inkscape.org/namespaces/inkscape"
   xmlns:sodipodi="http://sodipodi.sourceforge.net/DTD/sodipodi-0.dtd"
   xmlns="http://www.w3.org/2000/svg"
   xmlns:svg="http://www.w3.org/2000/svg">
  <defs
     id="defs1" />
  <sodipodi:namedview
     id="namedview1"
     pagecolor="#ffffff"
     bordercolor="#000000"
     borderopacity="0.25"
     inkscape:showpageshadow="2"
     inkscape:pageopacity="0.0"
     inkscape:pagecheckerboard="0"
     inkscape:deskcolor="#d1d1d1"
     inkscape:zoom="0.33912935"
     inkscape:cx="1301.8631"
     inkscape:cy="1167.696"
     inkscape:window-width="1920"
     inkscape:window-height="1004"
     inkscape:window-x="0"
     inkscape:window-y="0"
     inkscape:window-maximized="1"
     inkscape:current-layer="svg1" />
  <path
     d="M421 2245q-48 0-79.5-28.5T310 2143q0-42 27.5-70t69.5-28q25 0 47-9t45-21q23-12 48-26.5t66-40q41-25.5 109-69.5 54-35 64.5-55t10.5-54q0-53-14.5-186t-38-321Q721 1075 692 858q-14-73-21-121.5t-7-77.5q0-99 48.5-169.5t157-122Q978 316 1157 273q170-41 322-68t261.5-41q109.5-14 148.5-14 116 0 206.5 50T2238 336q52 86 52 195 0 163-113 261.5T1857 891h-665l56-50q20 61 29.5 128t9.5 116q0 103-10.5 178t-26 136.5q-15.5 61.5-31 124.5t-26 140.5Q1183 1742 1183 1850q0 61 20 111.5t20 104.5q0 76-56 121.5t-153 45.5q-87 0-161.5-10t-95.5-10q-27 0-69.5 16t-89.5 16q-28 0-49.5-6t-38.5-6q-17 0-41 6t-48 6zm596-171l-48-34q23-32 23-73 0-22-5-41l58-14q7 25 7 53 0 60-35 109zm-596 81q15 0 41-6t48-6q23 0 47.5 6t40.5 6q18 0 46.5-8t59-16q30.5-8 53.5-8 19 0 61.5 5t95 10q52.5 5 100.5 5 53 0 76-20.5t23-57.5q0-30-10-62.5t-20-70.5q-10-38-10-82 0-118 10.5-199t26-142.5q15.5-61.5 31-120t26-130Q1177 1187 1177 1085q0-62-16-136.5T1104 781h753q172 0 242.5-63.5T2170 531q0-84-32-144.5t-94.5-93.5q-62.5-33-154.5-33-35 0-140 14.5T1495 317q-149 28-318 69-160 38-247.5 73T808 540q-34 46-34 119 0 24 6.5 69.5T800 842q29 220 49.5 380t33 269.5Q895 1601 901 1668t6 102q0 60-26 101t-101 84q-46 26-80.5 46.5T636 2041q-34 22-59.5 35.5T530 2100q-13 6-50 15.5t-57 9.5q-28 0-28 15 0 7 8 11t18 4zM928 773l-38-46q69-57 69-134h60q0 106-91 180z"
     id="path1"
     style="fill:#ffffff;fill-opacity:1" />
</svg>
