<?xml version="1.0" encoding="UTF-8" standalone="no"?>
<svg
   viewBox="0 0 2601 2335.392"
   version="1.1"
   id="svg1"
   sodipodi:docname="other.svg"
   inkscape:version="1.4.3 (0d15f75042, 2025-12-25)"
   xmlns:inkscape="http://www.inkscape.org/namespaces/inkscape"
   xmlns:sodipodi="http://sodipodi.sourceforge.net/DTD/sodipodi-0.dtd"
   xmlns="http://www.w3.org/2000/svg"
   xmlns:svg="http://www.w3.org/2000/svg">
  <defs
     id="defs1" />
  <sodipodi:namedview
     id="namedview1"
     pagecolor="#ffffff"
     bordercolor="#000000"
     borderopacity="0.25"
     inkscape:showpageshadow="2"
     inkscape:pageopacity="0.0"
     inkscape:pagecheckerboard="0"
     inkscape:deskcolor="#d1d1d1"
     inkscape:zoom="0.33912935"
     inkscape:cx="1301.8631"
     inkscape:cy="1167.696"
     inkscape:window-width="1920"
     inkscape:window-height="1004"
     inkscape:window-x="0"
     inkscape:window-y="0"
     inkscape:window-maximized="1"
     inkscape:current-layer="svg1" />
  <path
     d="M1409 2250l-405-386q-20-19-30-19-8 0-11.5 9.5T957 1881q-12 135-86.5 218.5T666 2183q-82 0-147.5-38.5t-103.5-103q-38-64.5-38-142.5 0-72 34-136t89.5-107.5Q556 1612 621 1603q26-4 41.5-11.5T678 1566q0-16-12-29l-391-443 289-320q26-28 56.5-41t61.5-13q74 0 98 42t35 129q8 59 26 88.5t57 29.5q25 0 49.5-19.5T1020 922q38-38 57-70.5t19-59.5q0-33-26.5-57.5T988 695q-83-23-132.5-58.5T806 531q0-47 21.5-78t70.5-70l292-233 405 386q20 19 30 19 8 0 12-10t5-26q12-135 86.5-218.5T1933 217q82 0 147.5 38.5T2184 358q38 64 38 143 0 71-34 135.5T2098.5 744q-55.5 43-120.5 53-26 4-41.5 11.5T1921 834q0 15 12 29l392 443-290 320q-25 28-56 41t-62 13q-73 0-97.5-42t-35.5-129q-7-59-25.5-88.5T1701 1391q-25 0-50.5 18.5T1579 1478q-36 39-56 71t-20 59q0 33 26.5 57.5t81.5 39.5q83 22 132.5 57.5T1793 1869q0 47-21.5 78t-70.5 70l-292 233zm7-159l211-168q26-21 36-32.5t10-21.5q0-10-14.5-20t-79.5-28q-88-25-142-79t-54-134q0-56 30-110t81-105q57-62 102-92t105-30q94 0 145.5 67t57.5 166q2 25 5.5 40.5t11.5 15.5q11 0 25-15l218-240-321-362q-42-48-42-109 0-71 46-109t115-47q54-7 97-61t43-116q0-70-48.5-117T1933 337q-76 0-119.5 47.5T1762 524q-5 60-38.5 105.5T1625 675q-34 0-60.5-14.5T1513 623l-330-314-211 168q-27 21-36.5 32.5T926 531q0 10 14.5 20t79.5 28q89 25 142.5 79t53.5 134q0 56-29.5 109.5T1108 1003q-60 58-105 92t-105 34q-94 0-145.5-67T695 896q-1-26-5-41t-12-15q-11 0-25 15l-217 240 320 362q42 48 42 109 0 70-46 108.5T637 1722q-54 7-97 61t-43 116q0 70 48.5 117t120.5 47q76 0 119.5-47.5T837 1876q5-60 38.5-105.5T974 1725q34 0 60.5 14.5t51.5 37.5l330 314z"
     id="path1"
     style="fill:#ffffff;fill-opacity:1" />
</svg>
